<svg  display="none" xmlns="http://www.w3.org/2000/svg">

<symbol id="vkontakte" viewBox="0 0 21.99 12">
<svg>
<path d="M17.6 12a2.87 2.87 0 01-1.5-.5 4.89 4.89 0 01-1.3-1.2c-.3-.3-.9-.9-1.1-.9a1.34 1.34 0 00-.3 1.2 1.33 1.33 0 01-.3.9 1.63 1.63 0 01-.9.4h-1.4a8.16 8.16 0 01-5.4-2.3C2.5 7.1.2 2.2.1 2 0 1.6-.1 1.2.2.9a1.62 1.62 0 011-.4h3.1a1.74 1.74 0 01.7.3 2.2 2.2 0 01.5.6 15.3 15.3 0 002.6 4 7.81 7.81 0 00.1-2.3 2.51 2.51 0 00-.2-1 .76.76 0 00-.5-.2l-.6-.5c0-.5.5-.9.9-1.1a6.71 6.71 0 012.3-.3h.5c.9 0 1.2.1 1.6.1 1.2.3 1.2 1.3 1.1 2.5v1.6a3.08 3.08 0 00.1 1c.2-.1.6-.5 1.5-1.9A14.73 14.73 0 0016 1.2a1.12 1.12 0 011.2-.7h3.4c.7 0 1.2.2 1.3.7s.1 1.3-1.7 3.5a5.5 5.5 0 00-.7.9 3.17 3.17 0 00-.9 1.1c0 .1.5.5.9.9a8.88 8.88 0 012.2 2.3 1.32 1.32 0 01.2 1.3c-.3.7-1.2.7-1.4.8h-2.9zm-3.9-3.7c.7 0 1.2.6 1.8 1.2a5 5 0 001.1 1 2.15 2.15 0 001 .3h2.9c.1 0 .3-.1.4-.1a.1.1 0 00-.1-.1 9.1 9.1 0 00-2-2.1c-.9-.7-1.3-1.1-1.4-1.7s.4-1.1 1.2-2.1c.2-.2.4-.5.7-.8a9 9 0 001.5-2.3h-3.9A6.68 6.68 0 0115.8 4c-1.4 2.1-2 2.4-2.5 2.4a.6.6 0 01-.4-.1c-.7-.4-.7-1.4-.7-2.1V2.6c.1-1.3 0-1.3-.3-1.4a4.18 4.18 0 00-1.4-.1H10a6.15 6.15 0 00-1.4.1l.2.2a3.15 3.15 0 01.4 1.7c.1 1.3 0 2.9-.7 3.3-.1 0-.2.1-.4.1-.6 0-1.3-.7-2.5-2.5C5 2.9 4.5 1.8 4.5 1.8a.1.1 0 00-.1-.1.35.35 0 01-.2-.1h-3A28.21 28.21 0 006 8.8a7.19 7.19 0 004.7 2h1.4s.2 0 .2-.1v-.1c0-.2 0-2 1.2-2.3z"/>
</svg>
</symbol>

<symbol id="instagram" viewBox="0 0 16.1 16">
<svg>
<path d="M11.8 1A3.16 3.16 0 0115 4.2v7.7a3.12 3.12 0 01-3.1 3.1H4.2A3.16 3.16 0 011 11.8V4.2A3.16 3.16 0 014.2 1h7.6m0-1H4.2A4.23 4.23 0 000 4.2v7.7A4.21 4.21 0 004.2 16h7.7a4.23 4.23 0 004.2-4.2V4.2A4.38 4.38 0 0011.8 0z"/>
<path d="M8 4.9A3.1 3.1 0 114.9 8 3.12 3.12 0 018 4.9m0-1A4.06 4.06 0 003.9 8 4.06 4.06 0 008 12.1 4.06 4.06 0 0012.1 8 4.06 4.06 0 008 3.9z"/>
<circle cx="12.3" cy="3.7" r=".9"/>
</svg>
</symbol>

<symbol id="facebook" viewBox="0 0 10 19">
<svg>
<path d="M7.1 19H2v-8.8H0V5.8h1.9c-.1-2 .2-3.4 1.1-4.4A4.89 4.89 0 016.5 0H10v4.2H7.2A4.66 4.66 0 007 5.8h3v4.4H7.1zm-4-1h2.8V9.1h2.9V6.8H5.9v-.5c0-1.4 0-2.6.7-3.1l.1-.1h2.1V1H6.5a3.88 3.88 0 00-2.6 1c-.8.8-1 2.3-.8 4.2l.1.6H1.1v2.3h2z"/>
</svg>
</symbol>

<symbol id="logo-footer" viewBox="0 0 127.8 23.5">
<svg>
<path d="M1.6 21.5A9.1 9.1 0 010 15.9V7.6a9.22 9.22 0 011.5-5.7C2.6.6 4.3 0 6.8 0s4.1.6 5.1 1.7a7.18 7.18 0 011.5 4.9v2H8.5V6.3a4.92 4.92 0 00-.3-2 1.44 1.44 0 00-1.4-.8c-.7 0-1.2.2-1.4.7a6.46 6.46 0 00-.3 2.2v10.7a4.14 4.14 0 00.4 2.1c.2.5.7.7 1.4.7s1.1-.2 1.3-.7a5.84 5.84 0 00.3-2.1v-2.4h4.9v2a7.65 7.65 0 01-1.5 5q-1.5 1.8-5.1 1.8c-2.4-.1-4.2-.7-5.2-2zM19.3.3H25l4.2 22.8h-4.6l-.8-4.8h-3.3l-.8 4.8H15zm4.1 15l-1.2-8.9-1.2 8.9zm9.3-11.2h-3.4V.3h11.9V4h-3.4v19.1h-5.1zM50.3.3h8.8v2.4h-5.7v7.5H58v2.3h-4.6v8.4h5.7v2.3h-8.9V.3zm11.4 0h2.2l6.5 15.1V.3H73v22.8h-2L64.4 7.5v15.6h-2.7zM76 .3h8.8v2.4h-5.7v7.5h4.6v2.3h-4.6v8.4h5.7v2.3H76zm11.4 0H92a8 8 0 015.1 1.4c1.1.9 1.6 2.5 1.6 4.6 0 2.9-.9 4.7-2.8 5.3L99.1 23H96l-3-10.7h-2.5V23h-3.2V.3zm4.4 9.8a4.37 4.37 0 002.9-.8q.9-.75.9-3a6.46 6.46 0 00-.3-2.2 2.54 2.54 0 00-1.1-1.2 4.56 4.56 0 00-2.2-.4h-1.4V10h1.2zm10.9 11.3a10.11 10.11 0 01-1.4-5.8V8a16.35 16.35 0 01.5-4.3 5.08 5.08 0 011.9-2.6 6.53 6.53 0 013.7-.9c2.1 0 3.6.5 4.5 1.6a7.65 7.65 0 011.4 5v.8h-3v-.7a14.73 14.73 0 00-.2-2.5 2 2 0 00-.8-1.3 3.09 3.09 0 00-1.9-.5 3 3 0 00-2 .6 2.26 2.26 0 00-.8 1.6 18.7 18.7 0 00-.2 2.7V16a9.08 9.08 0 00.6 3.8c.4.8 1.2 1.1 2.4 1.1a2.42 2.42 0 002.4-1.2 9.2 9.2 0 00.7-4v-1.6h-2.9v-2.3h5.8v11.3h-2l-.3-2.6a4.08 4.08 0 01-4.1 2.9 5 5 0 01-4.3-2zm17.1-6.3L114.9.4h3l3.5 11 3.4-11h3l-4.9 14.7v8h-3v-8z"/>
</svg>
</symbol>

<symbol id="logo-html"  viewBox="0 0 39.4 50">
          <svg>
          <path d="M19.9 0h-.2L0 2.1v36.2L19.7 50l19.7-11.7V2.1zm17 36.8L19.7 47 2.5 36.8V22l17.1 10.2V34L7.9 27v1.8l11.8 7.1v1.9l-11.8-7v1.8l11.8 7 11.9-7.1v-7.6l5.3-3.2zm-.1-17l-4.7 2.8-2.2 1.3-10.3-6.1v1.8l8.8 5.3h-.1l-.2.1-1.3.7-7.3-4.3v1.8l5.8 3.4-1.4.9-4.3-2.6v1.8l2.9 1.7-2.9 1.7L2.6 20l17-10.2zm.1-1.8L19.6 7.8 2.5 18V4.4l17.2-1.8 17.2 1.8z"/>
          </svg>

</symbol>

<symbol id="icon-gift" viewBox="0 0 55.41 59.84">
<svg>
<path d="M52.3 12.14h-7a9.06 9.06 0 001.1-2.2A7.57 7.57 0 0045.8 4 7.73 7.73 0 0041.2.34a7.57 7.57 0 00-5.9.6c-3.6 2-6.2 6.1-7.6 9-1.4-2.9-4-7.1-7.6-9A7.81 7.81 0 009.6 4a7.62 7.62 0 00.5 8.1h-7A3.12 3.12 0 000 15.24v9.4a3.12 3.12 0 003.1 3.1H4v26.1a6 6 0 006 6h35.5a6 6 0 006-6v-26.1h.8a3.12 3.12 0 003.1-3.1v-9.4a3 3 0 00-3.1-3.1zm-15.8-9.2a5.33 5.33 0 014.1-.4 5.27 5.27 0 013.1 2.6 5.32 5.32 0 01-1.8 7H29.4c1.1-2.6 3.6-7.2 7.1-9.2zm-24.8 2.2a5.45 5.45 0 017.3-2.2c3.5 1.9 6 6.6 7.1 9.1H13.5a5.24 5.24 0 01-1.8-6.9zm14.8 22.6v13.7H6.4v-13.7zM6.4 53.84v-10h20.2v13.7H10a3.67 3.67 0 01-3.6-3.7zm39.1 3.7H28.9v-13.7h20.2v10a3.67 3.67 0 01-3.6 3.7zm3.6-16.1H28.9v-13.7h20.2zm4-16.8a.68.68 0 01-.7.7H3.2a.68.68 0 01-.7-.7v-9.4a.68.68 0 01.7-.7h49.2a.68.68 0 01.7.7z"/>
</svg>
</symbol>

<symbol id="icon-cat-slim" viewBox="0 0 70.04 97">
<svg>
<path d="M54.8 0h-.4A3.11 3.11 0 0053 1.6 15.81 15.81 0 0051.7 5a1.6 1.6 0 01-1.5 1.3A7.36 7.36 0 0045 10a33.89 33.89 0 00-1.8 3.9c-1.4 3.7-2.5 7.5-3.8 11.2-.7 1.9-.8 1.9-2.7 1.9-2.3 0-2.1-.4-2.1 2.1 0 .8.2 1.2 1.1 1.2.3 0 .7-.1.8.2s-.2.5-.4.7a8.42 8.42 0 01-4.3 2.4c-1.9.5-3.8.9-5.7 1.5-4.7 1.6-9.1 3.8-12.6 7.6a27.06 27.06 0 00-4.7 7.8c-3.8 8.7-5.6 17.8-7 27-.6 4.3-1.1 8.6-1.5 13C.2 92.7 0 94.8 0 97h33.3a2.74 2.74 0 00-.2-1.3 5 5 0 00-3.8-3.1c-.7-.2-.8-.4-.4-.9a11.39 11.39 0 001.6-3.1 92.65 92.65 0 003.1-14.8A31.67 31.67 0 0137 63a22.88 22.88 0 015.6-6.4c.8-.6.9-.6 1 .4.1.7.1 1.4.2 2.2a84.19 84.19 0 01-.2 14.2 67.57 67.57 0 00-.2 11A89.77 89.77 0 0045.6 97h13.3a5.32 5.32 0 00-4.2-4.4 9.76 9.76 0 00-3.8.2c-.6.1-.8 0-.9-.6a55.86 55.86 0 011-15.8c1.3-6 2.4-12.1 3.1-18.2a17.53 17.53 0 012.3-7c1.2-2.1 2.2-4.3 3.4-6.5a6 6 0 00.4-5.2 18.94 18.94 0 00-.9-2.1c-1-2-2-3.9-2.9-5.9-.5-1-.4-1.1.7-1.1 1.6 0 1.6 0 1.7-1.6v-.7c0-.7-.3-1.1-1-1h-1.5c-.7 0-.9-.3-.7-1a6.25 6.25 0 015.1-4.4 21 21 0 016.6.4 1 1 0 001.3-.6c.4-1 .8-2 1.3-3a.9.9 0 00-.1-1.1c-3.2-4.2-6.7-8-11.4-10.4a1.62 1.62 0 01-.9-1.1 22.53 22.53 0 00-1.3-4.2A2.91 2.91 0 0054.8 0z"/>
</svg>
</symbol>

<symbol id="icon-cat-pro" viewBox="0 0 134.07 56.16">
<svg>
<path d="M123.12 5.76a15.2 15.2 0 014.5-4.6c1-.7 1.6-.7 2.2.6.8 1.9 1.5 3.9.9 6a2.29 2.29 0 00.4 2.1c.6.8 1.1 1.6 1.6 2.3a6.27 6.27 0 01.9 6.2 5.43 5.43 0 00-.2 3.1 7.57 7.57 0 010 3 3.75 3.75 0 01-2.7 3.2 5.21 5.21 0 00-3.2 2 1.05 1.05 0 01-.9.5c-1.2.2-4.2-2.5-4.2-3.7v-.6c.1-3.6-.1-3.9-3.4-5.4a4.39 4.39 0 01-1.8-1.2c-.6-.8-1.4-.7-2.3-.4s-1.4.9-1.3 1.9a44.14 44.14 0 01.3 7.3 1.88 1.88 0 00.2.8c3.1 4.5 4.3 9.8 5.8 14.9 1.2 3.9 3.4 6 7.4 6.3a12.5 12.5 0 011.9.3 4.16 4.16 0 013.4 3.2c.7 2.1.3 2.6-1.8 2.6h-6.5a3.24 3.24 0 01-2.3-.8 11.71 11.71 0 00-3.4-2 7.26 7.26 0 01-3.4-2.6 28.61 28.61 0 00-4-4.5c-2.8-2.9-5.8-5.7-8.4-8.7a11.38 11.38 0 01-3.2-7.6c0-.9-.2-1.3-1.2-.9a1.93 1.93 0 01-1 .3c-2.8 0-4.2 1.7-5.2 4.2-.9 2.1-2.1 4.1-3.2 6.2A10.39 10.39 0 0088 44c0 2.4.6 3.2 2.8 4 1.4.5 2.7 1 3.4 2.4.8 1.6.6 2-1.1 2.1h-6.8a1.88 1.88 0 01-1.9-1.1l-1.8-3a6.05 6.05 0 01-.7-5.4 11.86 11.86 0 00.1-5.3 8.42 8.42 0 011.7-7c.6-.7.6-1-.4-1.2a50.06 50.06 0 01-11.8-4.1.1.1 0 01-.1-.1c-3.2-1.2-3.8-1-4.7 2.3-.8 2.8-1.6 5.6-2.2 8.5-.7 3.2.1 6.2 1.1 9.2.4 1.2 1.6 1.1 2.5 1.4 2 .6 3.7 1.4 4.5 3.5.7 1.6.6 1.8-1.1 1.8s-3.4-.1-5.2 0a6.64 6.64 0 01-4.2-1.4c-4.8-3.2-6.2-8.1-6.6-13.4-.2-3.3-2-5.9-4.1-8.4-.4-.5-.8-.7-1.4-.3a44.32 44.32 0 01-6.7 3 26.71 26.71 0 00-12.2 8.8 10.63 10.63 0 00-2.2 5.1c-.3 1.8.2 2.6 2 3.1s2.7 1.5 2.9 3.4c.1.8-.2 1.2-1 1.2h-8.1a1.65 1.65 0 01-1.3-.8 8.56 8.56 0 01-1.9-5.5 50.6 50.6 0 01.9-10.3 6.3 6.3 0 013.4-4.8c5.9-2.8 9-8.1 11.8-13.6.6-1.1.1-1.3-.9-1.2a16.47 16.47 0 00-7.7 3.2 70.62 70.62 0 00-8.3 7.1 16.67 16.67 0 01-10.3 4.9C3.1 32.5-.3 28.4 0 21.8a9.69 9.69 0 012.4-6.1 4.25 4.25 0 014.5-1.5c1.5.4 1.9 1.2 1.3 2.7-.3.6-.7 1.1-1 1.7a7.5 7.5 0 00-1 2c-1.1 3 .4 5.1 3.5 5.4 3.3.3 6-1.1 8.5-3.1a44.94 44.94 0 008-8.3 20.79 20.79 0 0114.4-8.1c2.3-.3 4.3-1.3 6.5-1.9a41.51 41.51 0 0112.7-1.8 13 13 0 005.8-1.1c4.9-2 10-2 15.1-1 4 .8 8 1.8 11.9 2.8a16.58 16.58 0 007-.2 67.79 67.79 0 0113.4-2 18.16 18.16 0 018.6 1.7c2.02.86 2.02.86 1.52 2.76z"/>
</svg>
</symbol>



<symbol id="right-arrow"  viewBox="0 0 24.2 11">
<svg>
<path d="M17.6 0l6.6 5.5-6.6 5.5V6.6H0V4.4h17.6V0z"/>
</svg>
</symbol>

<symbol id="icon-mail" viewBox="0 0 17 13">
<svg>
<path d="M15.6 11.6H1.4V5.8H0V13h17V5.8h-1.4zM0 0v2.3l8.5 7.1L17 2.3V0zm15.6 1.6L8.5 7.5 1.4 1.6v-.2h14.2z"/>
</svg>
</symbol>

<symbol id="icon-phone" viewBox="0 0 19.96 19.93">
<svg>
<path d="M17.91 9.41h-8.5v1.2h8.5l-2.1 2.1.9.9 3.1-3.1a.75.75 0 000-.9l-3.1-3.1-.9.9zM8.11 19.41v-6.2a.65.65 0 00-.6-.6h-4.4a1.22 1.22 0 001.2 1.2h2.5v5h-3.7a1.79 1.79 0 01-1.9-1.7v-14a1.77 1.77 0 011.7-1.8h3.9v5h-2.4a1.22 1.22 0 00-1.2 1.2h4.4a.65.65 0 00.6-.6V.61a.86.86 0 00-.7-.6h-4.4A3 3 0 000 2.91v13.9a2.89 2.89 0 002.9 3.1h4.6a.5.5 0 00.61-.5z"/>
</svg>
</symbol>

<symbol id="right-arrow-long" viewBox="0 0 32 11">
<svg>
<path d="M25.4 0L32 5.5 25.4 11V6.6H0V4.4h25.4V0z"/>
</svg>
<svg>
</symbol>

</svg>
